<svg xmlns="http://www.w3.org/2000/svg" viewBox="0 0 100 100" width="100%" height="100%">
    <defs>
        <linearGradient id="darkCloudGrad" x1="0%" y1="0%" x2="0%" y2="100%">
            <stop offset="0%" stop-color="#cbd5e1" />
            <stop offset="100%" stop-color="#64748b" />
        </linearGradient>
        <filter id="softShadow" x="-10%" y="-10%" width="130%" height="130%">
            <feDropShadow dx="0" dy="4" stdDeviation="4" flood-color="#000000" flood-opacity="0.15"/>
        </filter>
    </defs>
    <g filter="url(#softShadow)">
        <path d="M 32,55 C 22,55 14,47 14,37 C 14,28 21,20 30,19 C 33,11 41,5 50,5 C 60,5 68,12 70,21 C 72,20 74,20 76,20 C 85,20 92,27 92,36 C 92,45 85,55 76,55 Z" fill="url(#darkCloudGrad)" opacity="0.7" transform="translate(14, 10) scale(0.9)" />
        <path d="M 32,55 C 22,55 14,47 14,37 C 14,28 21,20 30,19 C 33,11 41,5 50,5 C 60,5 68,12 70,21 C 72,20 74,20 76,20 C 85,20 92,27 92,36 C 92,45 85,55 76,55 Z" fill="url(#darkCloudGrad)" opacity="0.85" transform="translate(-6, 16) scale(0.95)" />
        <path d="M 32,55 C 22,55 14,47 14,37 C 14,28 21,20 30,19 C 33,11 41,5 50,5 C 60,5 68,12 70,21 C 72,20 74,20 76,20 C 85,20 92,27 92,36 C 92,45 85,55 76,55 Z" fill="url(#darkCloudGrad)" transform="translate(4, 26) scale(1.0)" />
    </g>
</svg>
