<svg xmlns="http://www.w3.org/2000/svg" viewBox="0 0 100 100" width="100%" height="100%">
    <defs>
        <linearGradient id="moonGrad" x1="0%" y1="0%" x2="100%" y2="100%">
            <stop offset="0%" stop-color="#ff8833" />
            <stop offset="100%" stop-color="#ff4400" />
        </linearGradient>
        <filter id="blurGlow" x="-20%" y="-20%" width="140%" height="140%">
            <feGaussianBlur stdDeviation="6" result="blur" />
            <feComposite in="SourceGraphic" in2="blur" operator="over" />
        </filter>
        <filter id="softShadow" x="-10%" y="-10%" width="130%" height="130%">
            <feDropShadow dx="0" dy="4" stdDeviation="4" flood-color="#000000" flood-opacity="0.15"/>
        </filter>
    </defs>
    <g filter="url(#softShadow)">
        <path d="M 42,25 C 60,25 68,38 68,38 C 68,38 56,42 56,56 C 56,70 69,73 69,73 C 69,73 58,81 44,81 C 25,81 15,66 15,51 C 15,36 26,25 42,25 Z" fill="url(#moonGrad)" filter="url(#blurGlow)" />
        <g fill="#ff5511">
            <path d="M 72,22 L 74,26 L 78,27 L 75,30 L 76,34 L 72,32 L 68,34 L 69,30 L 66,27 L 70,26 Z" />
            <path d="M 84,38 L 85,41 L 88,42 L 86,44 L 87,47 L 84,45 L 81,47 L 82,44 L 80,42 L 83,41 Z" transform="scale(0.8) translate(15, 2)" />
        </g>
    </g>
</svg>
