<svg xmlns="http://www.w3.org/2000/svg" viewBox="0 0 100 100" width="100%" height="100%">
    <defs>
        <linearGradient id="moonGrad" x1="0%" y1="0%" x2="100%" y2="100%">
            <stop offset="0%" stop-color="#ff8833" />
            <stop offset="100%" stop-color="#ff4400" />
        </linearGradient>
        <linearGradient id="cloudGrad" x1="0%" y1="0%" x2="0%" y2="100%">
            <stop offset="0%" stop-color="#ffffff" />
            <stop offset="40%" stop-color="#e2e8f0" />
            <stop offset="100%" stop-color="#94a3b8" />
        </linearGradient>
        <filter id="softShadow" x="-10%" y="-10%" width="130%" height="130%">
            <feDropShadow dx="0" dy="4" stdDeviation="4" flood-color="#000000" flood-opacity="0.15"/>
        </filter>
    </defs>
    <g filter="url(#softShadow)">
        <path d="M 46,15 C 60,15 66,25 66,25 C 66,25 57,28 57,39 C 57,50 67,52 67,52 C 67,52 59,58 48,58 C 34,58 26,47 26,35 C 26,24 34,15 46,15 Z" fill="url(#moonGrad)" />
        <g fill="#ff5511">
            <path d="M 72,12 L 73.5,15 L 77,15.5 L 74.5,18 L 75,21.5 L 72,20 L 69,21.5 L 69.5,18 L 67,15.5 L 70.5,15 Z" transform="scale(0.8) translate(10, 2)"/>
        </g>
        <path d="M 32,55 C 22,55 14,47 14,37 C 14,28 21,20 30,19 C 33,11 41,5 50,5 C 60,5 68,12 70,21 C 72,20 74,20 76,20 C 85,20 92,27 92,36 C 92,45 85,55 76,55 Z" fill="url(#cloudGrad)" transform="translate(0, 24) scale(0.95)"/>
    </g>
</svg>
