<svg xmlns="http://www.w3.org/2000/svg" viewBox="0 0 100 100" width="100%" height="100%">
    <defs>
        <linearGradient id="sunGrad" x1="0%" y1="0%" x2="100%" y2="100%">
            <stop offset="0%" stop-color="#ff7722" />
            <stop offset="100%" stop-color="#ff3300" />
        </linearGradient>
        <linearGradient id="cloudGrad" x1="0%" y1="0%" x2="0%" y2="100%">
            <stop offset="0%" stop-color="#ffffff" />
            <stop offset="40%" stop-color="#e2e8f0" />
            <stop offset="100%" stop-color="#94a3b8" />
        </linearGradient>
        <filter id="softShadow" x="-10%" y="-10%" width="130%" height="130%">
            <feDropShadow dx="0" dy="4" stdDeviation="4" flood-color="#000000" flood-opacity="0.15"/>
        </filter>
    </defs>
    <g filter="url(#softShadow)">
        <circle cx="40" cy="38" r="16" fill="url(#sunGrad)" />
        <g stroke="#ff5511" stroke-width="2.5" stroke-linecap="round">
            <line x1="40" y1="12" x2="40" y2="17" />
            <line x1="14" y1="38" x2="19" y2="38" />
            <line x1="22" y1="20" x2="26" y2="24" />
            <line x1="58" y1="20" x2="54" y2="24" />
        </g>
        <path d="M 32,55 C 22,55 14,47 14,37 C 14,28 21,20 30,19 C 33,11 41,5 50,5 C 60,5 68,12 70,21 C 72,20 74,20 76,20 C 85,20 92,27 92,36 C 92,45 85,55 76,55 Z" fill="url(#cloudGrad)" transform="translate(2, 20) scale(0.9)"/>
    </g>
</svg>
