<svg xmlns="http://www.w3.org/2000/svg" viewBox="0 0 100 100" width="100%" height="100%">
    <defs>
        <linearGradient id="cloudGrad" x1="0%" y1="0%" x2="0%" y2="100%">
            <stop offset="0%" stop-color="#ffffff" />
            <stop offset="40%" stop-color="#e2e8f0" />
            <stop offset="100%" stop-color="#94a3b8" />
        </linearGradient>
        <filter id="softShadow" x="-10%" y="-10%" width="130%" height="130%">
            <feDropShadow dx="0" dy="4" stdDeviation="4" flood-color="#000000" flood-opacity="0.15"/>
        </filter>
    </defs>
    <g filter="url(#softShadow)">
        <path d="M 20,38 C 14,38 9,33 9,27 C 9,21 13,16 19,15 C 21,10 26,6 32,6 C 39,6 44,11 45,17 C 46,16 48,16 49,16 C 55,16 60,21 60,27 C 60,33 55,38 49,38 Z" fill="url(#cloudGrad)" opacity="0.8" transform="translate(10, 15) scale(1.1)" />
        <path d="M 32,55 C 22,55 14,47 14,37 C 14,28 21,20 30,19 C 33,11 41,5 50,5 C 60,5 68,12 70,21 C 72,20 74,20 76,20 C 85,20 92,27 92,36 C 92,45 85,55 76,55 Z" fill="url(#cloudGrad)" transform="translate(-4, 22) scale(0.95)" />
    </g>
</svg>
