<svg xmlns="http://www.w3.org/2000/svg" viewBox="0 0 100 100" width="100%" height="100%">
    <defs>
        <linearGradient id="moonGrad" x1="0%" y1="0%" x2="100%" y2="100%">
            <stop offset="0%" stop-color="#ff8833" />
            <stop offset="100%" stop-color="#ff4400" />
        </linearGradient>
        <linearGradient id="darkCloudGrad" x1="0%" y1="0%" x2="0%" y2="100%">
            <stop offset="0%" stop-color="#cbd5e1" />
            <stop offset="100%" stop-color="#64748b" />
        </linearGradient>
        <filter id="blurGlow" x="-20%" y="-20%" width="140%" height="140%">
            <feGaussianBlur stdDeviation="6" result="blur" />
            <feComposite in="SourceGraphic" in2="blur" operator="over" />
        </filter>
        <filter id="softShadow" x="-10%" y="-10%" width="130%" height="130%">
            <feDropShadow dx="0" dy="4" stdDeviation="4" flood-color="#000000" flood-opacity="0.15"/>
        </filter>
    </defs>
    <g filter="url(#softShadow)">
        <path d="M 36,10 C 48,10 54,18 54,18 C 54,18 46,21 46,30 C 46,39 55,41 55,41 C 55,41 48,46 38,46 C 26,46 19,37 19,27 C 19,17 26,10 38,10 Z" fill="url(#moonGrad)" transform="translate(10, 0) scale(0.9)"/>
        <path d="M 32,55 C 22,55 14,47 14,37 C 14,28 21,20 30,19 C 33,11 41,5 50,5 C 60,5 68,12 70,21 C 72,20 74,20 76,20 C 85,20 92,27 92,36 C 92,45 85,55 76,55 Z" fill="url(#darkCloudGrad)" transform="translate(0, 16) scale(0.95)"/>
        <g stroke="#2563eb" stroke-width="2.5" stroke-linecap="round" opacity="0.6">
            <line x1="28" y1="68" x2="24" y2="77" />
            <line x1="40" y1="68" x2="36" y2="77" />
            <line x1="68" y1="68" x2="64" y2="77" />
        </g>
        <path d="M 54,62 L 45,75 L 52,75 L 48,89 L 61,73 L 53,73 Z" fill="#ff5511" filter="url(#blurGlow)" transform="scale(0.95)"/>
        <path d="M 54,62 L 45,75 L 52,75 L 48,89 L 61,73 L 53,73 Z" fill="#ff5511" transform="scale(0.95)"/>
    </g>
</svg>
